<?xml version="1.0" encoding="iso-8859-1"?>
<!-- Generator: Adobe Illustrator 17.1.0, SVG Export Plug-In . SVG Version: 6.00 Build 0)  -->
<!DOCTYPE svg PUBLIC "-//W3C//DTD SVG 1.1//EN" "http://www.w3.org/Graphics/SVG/1.1/DTD/svg11.dtd">
<svg version="1.1" id="Capa_1" xmlns="http://www.w3.org/2000/svg" xmlns:xlink="http://www.w3.org/1999/xlink" x="0px" y="0px"
	 viewBox="0 0 348.363 348.363" style="enable-background:new 0 0 348.363 348.363;" xml:space="preserve">
<g>
	<path d="M227.682,164.642c-14.458,0-26.221,11.763-26.221,26.221c0,3.038,2.463,5.5,5.5,5.5c3.037,0,5.5-2.462,5.5-5.5
		c0-8.393,6.828-15.221,15.221-15.221c8.393,0,15.221,6.828,15.221,15.221c0,3.038,2.463,5.5,5.5,5.5s5.5-2.462,5.5-5.5
		C253.902,176.404,242.14,164.642,227.682,164.642z"/>
	<path d="M122.682,175.642c8.393,0,15.221,6.828,15.221,15.221c0,3.038,2.463,5.5,5.5,5.5s5.5-2.462,5.5-5.5
		c0-14.458-11.763-26.221-26.221-26.221s-26.221,11.763-26.221,26.221c0,3.038,2.463,5.5,5.5,5.5s5.5-2.462,5.5-5.5
		C107.461,182.47,114.289,175.642,122.682,175.642z"/>
	<path d="M343.682,204.363c0-16.381-12.57-29.875-28.57-31.359c-12.428-54.611-56.091-97.48-111.133-108.737
		c-2.097-1.9-3.298-4.557-3.297-7.412c-0.001-3.064,1.377-5.921,3.778-7.838c0.001,0,0.001-0.001,0.001-0.001
		c5.03-4.012,7.915-10.001,7.915-16.435c0-6.477-2.92-12.496-8.012-16.514c-0.061-0.048-0.13-0.078-0.192-0.123
		c-2.217-1.909-3.491-4.641-3.49-7.581c0.001-3.038-2.461-5.5-5.499-5.501h-0.001c-3.037,0-5.499,2.462-5.5,5.499
		c-0.001,6.482,2.92,12.502,8.016,16.517c0.066,0.052,0.14,0.088,0.207,0.137c2.205,1.911,3.472,4.636,3.472,7.565
		c0,3.068-1.376,5.924-3.775,7.837c0,0,0,0-0.001,0c0,0,0,0-0.001,0.001c-5.032,4.017-7.918,10.008-7.917,16.436
		c0,1.819,0.237,3.599,0.681,5.31c-4.031-0.426-8.112-0.682-12.235-0.766c-2.094-1.9-3.293-4.555-3.293-7.407
		c0-3.065,1.377-5.922,3.778-7.839l0.001-0.001c5.03-4.012,7.916-10.002,7.916-16.435c0-6.477-2.921-12.496-8.013-16.514
		c-0.063-0.049-0.132-0.079-0.196-0.125c-2.214-1.909-3.486-4.64-3.486-7.579c0-3.038-2.463-5.5-5.5-5.5c-3.037,0-5.5,2.462-5.5,5.5
		c0,6.481,2.922,12.501,8.016,16.516c0.065,0.051,0.137,0.087,0.204,0.134c2.207,1.912,3.476,4.637,3.476,7.568
		c0,3.067-1.376,5.924-3.776,7.837c0,0,0,0-0.001,0c0,0,0,0-0.001,0.001c-5.031,4.016-7.917,10.006-7.917,16.437
		c0,2.689,0.51,5.296,1.463,7.717c-5.322,0.364-10.567,1.012-15.716,1.943c-1.708-1.84-2.676-4.239-2.675-6.798
		c-0.001-3.064,1.377-5.921,3.778-7.838c0.001,0,0.001-0.001,0.001-0.001c5.03-4.012,7.915-10.001,7.915-16.435
		c0-6.477-2.92-12.496-8.012-16.514c-0.061-0.048-0.13-0.078-0.192-0.123c-2.217-1.909-3.491-4.641-3.49-7.58
		c0.001-3.038-2.461-5.5-5.499-5.501h-0.001c-3.037,0-5.499,2.462-5.5,5.499c-0.001,6.482,2.92,12.502,8.016,16.517
		c0.066,0.052,0.14,0.088,0.207,0.137c2.205,1.911,3.472,4.636,3.472,7.565c0,3.068-1.376,5.924-3.775,7.837l-0.001,0
		c0,0,0,0-0.001,0.001c-5.032,4.017-7.918,10.008-7.917,16.436c0,3.315,0.768,6.508,2.196,9.375
		c-51.067,13.671-90.994,54.87-102.825,106.656c-16.951,0.481-30.596,14.411-30.596,31.477c0,16.992,13.526,30.877,30.376,31.472
		c14.199,64.287,71.63,112.528,140.124,112.528c68.541,0,126.002-48.306,140.152-112.658
		C331.229,234.119,343.682,220.668,343.682,204.363z M15.682,204.363c0-10.284,7.62-18.8,17.507-20.256
		c-0.987,6.779-1.507,13.708-1.507,20.756c0,6.695,0.472,13.281,1.363,19.734C23.229,223.08,15.682,214.598,15.682,204.363z
		 M175.182,337.363c-73.06,0-132.5-59.439-132.5-132.5s59.44-132.5,132.5-132.5s132.5,59.44,132.5,132.5
		S248.242,337.363,175.182,337.363z M317.379,224.17c0.853-6.316,1.303-12.76,1.303-19.307c0-6.906-0.501-13.696-1.449-20.344
		c8.865,2.259,15.449,10.287,15.449,19.844C332.682,213.869,326.169,221.86,317.379,224.17z"/>
	<path d="M234.108,247.193c-2.85-1.032-6.009,0.443-7.043,3.3c-8.028,22.185-29.28,37.091-52.884,37.091
		c-23.604,0-44.857-14.907-52.885-37.093c-1.033-2.857-4.189-4.333-7.043-3.301c-2.856,1.034-4.334,4.187-3.301,7.043
		c9.598,26.527,35.008,44.351,63.228,44.351c28.22,0,53.629-17.822,63.228-44.348C238.442,251.38,236.965,248.227,234.108,247.193z"
		/>
</g>
<g>
</g>
<g>
</g>
<g>
</g>
<g>
</g>
<g>
</g>
<g>
</g>
<g>
</g>
<g>
</g>
<g>
</g>
<g>
</g>
<g>
</g>
<g>
</g>
<g>
</g>
<g>
</g>
<g>
</g>
</svg>
